<svg width="61" height="82" viewBox="0 0 61 82" fill="none" xmlns="http://www.w3.org/2000/svg">
<path d="M26.5 45C21.5942 45.0022 16.89 46.8994 13.421 50.2745C9.95211 53.6497 8.00228 58.2268 8 63C8.00228 67.7732 9.95211 72.3503 13.421 75.7255C16.89 79.1006 21.5942 80.9978 26.5 81C31.4058 80.9978 36.11 79.1006 39.579 75.7255C43.0479 72.3503 44.9977 67.7732 45 63C44.9977 58.2268 43.0479 53.6497 39.579 50.2745C36.11 46.8994 31.4058 45.0022 26.5 45ZM22.6623 48.4326L24.7791 50.6847L23.4712 53.0707L19.1688 55.5153L17.5512 60.8902L24.9598 63.1758L17.0349 74.88C16.1679 74.2268 15.3747 73.4859 14.6686 72.6698L13.4812 63L17.5512 60.9153L11.7602 58.4456C12.552 56.0099 13.9671 53.81 15.8726 52.0526C17.7782 50.2952 20.1116 49.038 22.6537 48.3991L22.6623 48.4326ZM33.3837 49.5377C35.2792 50.4528 36.9605 51.7381 38.3228 53.3135L30.8023 53.5814L33.3837 49.5377ZM39.2005 54.427C41.3844 57.472 42.3294 61.1972 41.8525 64.8813C41.3756 68.5653 39.5108 71.9462 36.6191 74.3693L35.8274 65.8214L30.6647 64.3981L29.4686 58.7051L39.2005 54.427Z" fill="#E3E8E5" stroke="black" stroke-width="0.5" stroke-linecap="round" stroke-linejoin="round"/>
<path d="M15.7812 36.8627C14.8152 36.6978 13.1894 36.1205 12.0349 35.5315C7.59347 33.3049 4.01205 28.4393 1.76189 21.5592C1.27887 20.0748 0.513102 17.0236 0.336387 15.8455C0.253921 15.3271 0.159673 14.8205 0.12433 14.7263C0.0889869 14.632 0.041863 14.42 0.0183011 14.255C-0.0288228 13.9723 -0.00526089 13.9841 0.336387 14.3728C0.524883 14.5967 0.689817 14.8205 0.689817 14.8676C0.689817 15.0443 2.39806 16.2696 3.08135 16.5994C4.01205 17.0353 5.07234 17.2592 7.64059 17.5537C12.6239 18.131 14.9919 18.8143 17.6662 20.4636C19.3509 21.4885 20.906 23.2321 21.7071 24.9875C22.355 26.413 22.626 27.6382 22.6849 29.4054C22.7556 31.3375 22.6142 31.9854 21.9663 32.6334C21.7424 32.8572 21.601 33.1046 21.6246 33.1871C21.66 33.2813 21.5893 33.3402 21.4125 33.3402C21.2241 33.3284 21.0002 33.1517 20.7175 32.7983C20.0931 31.9854 18.7736 30.772 17.407 29.747L16.1818 28.8281L17.3128 29.9944C18.6205 31.3492 19.5158 32.386 20.2934 33.4463C20.7057 34.0117 20.8353 34.2945 20.8353 34.6243C20.8235 35.0013 20.8117 35.0249 20.6703 34.8482C20.529 34.6597 20.5054 34.6833 20.364 35.1192C20.1755 35.6729 19.4923 36.3326 18.7265 36.6742C18.1021 36.957 16.7708 37.0395 15.7812 36.8627Z" fill="#F2F851"/>
<path d="M33.9122 33.5876C32.9344 33.3284 32.0861 32.8807 31.5442 32.3859C31.1083 31.9618 30.6135 31.1961 30.6135 30.9251C30.6135 30.6541 30.3779 30.5952 30.2012 30.8191C30.048 31.0193 30.0362 31.0076 30.0245 30.6188C30.0127 29.4643 34.03 24.7165 38.6246 20.4518L39.7438 19.4151L38.3889 20.3222C34.8429 22.7137 31.5324 25.5765 29.9655 27.6146C29.4943 28.2272 29.3176 28.3804 29.0349 28.3804C28.7639 28.3922 28.7285 28.3686 28.8346 28.2272C28.9524 28.0859 28.8699 27.9563 28.434 27.5557C27.3855 26.5897 26.9967 25.1524 27.1146 22.6195C27.3737 16.8233 30.1423 12.0755 34.9371 9.22451C38.7424 6.96256 42.0646 6.06721 50.2406 5.06582C51.8782 4.86555 53.6217 4.60637 54.1165 4.47678C55.2829 4.18225 56.9793 3.36936 57.91 2.6625C58.6993 2.07345 60.0188 0.683297 60.2191 0.270963C60.2898 0.11781 60.384 0 60.4429 0C60.5725 0 60.5607 0.553706 60.4311 0.636173C60.384 0.671516 60.3016 1.04851 60.2544 1.47262C60.1837 2.15592 59.9717 3.27511 59.418 5.86693C59.0881 7.39846 57.7922 11.7339 57.2621 13.0769C57.2032 13.2418 57.0618 13.5835 56.9675 13.8427C56.1547 15.975 54.4935 19.4386 53.4922 21.088C49.145 28.2862 43.6197 32.4448 36.7985 33.6465C35.5733 33.8586 34.8547 33.8468 33.9122 33.5876Z" fill="#F2F851"/>
<path d="M26.1166 43.3755C25.7985 39.8766 25.8456 37.2494 26.2698 34.7518C26.7646 31.8419 27.7659 29.2854 29.1561 27.4123C30.0161 26.2577 32.5255 23.7013 33.9745 22.5114C36.6252 20.3437 40.8782 17.5045 44.5303 15.4546C44.8601 15.2661 45.2489 15.0422 45.4138 14.948C45.8026 14.7006 45.5905 14.9126 44.9426 15.3957C44.1179 16.0083 42.8102 17.0568 42.2801 17.5162C42.0209 17.7401 41.6557 18.0582 41.4554 18.2113C38.0625 21.027 34.3397 24.8087 31.96 27.8835C29.1561 31.5121 27.4007 35.977 26.6232 41.5023C26.5289 42.1974 26.4465 43.0339 26.4347 43.3637C26.4347 43.6936 26.3876 44.1766 26.3404 44.4358C26.2698 44.8246 26.2344 44.6478 26.1166 43.3755Z" fill="#0A0000"/>
<path d="M23.5837 43.3991C23.2891 40.4303 22.3584 37.1787 21.2039 35.117C19.7548 32.5252 16.0556 28.5197 12.7216 25.9397C11.8145 25.2328 11.7909 25.1739 12.6038 25.598C15.7729 27.2591 18.3176 29.0381 20.1672 30.8877C22.3349 33.0671 23.2302 35.011 23.6779 38.4864C23.8546 39.8648 23.89 42.5155 23.7486 43.67L23.6661 44.318L23.5837 43.3991Z" fill="#0A0000"/>
</svg>
